<svg xmlns="http://www.w3.org/2000/svg" xmlns:xlink="http://www.w3.org/1999/xlink" width="500" zoomAndPan="magnify" viewBox="0 0 375 374.999991" height="500" preserveAspectRatio="xMidYMid meet" version="1.0"><defs><g/><clipPath id="b6794425aa"><path d="M 20.179688 161.488281 L 94.789062 161.488281 L 94.789062 283 L 20.179688 283 Z M 20.179688 161.488281 " clip-rule="nonzero"/></clipPath><clipPath id="dbc22fbd33"><path d="M 90.289062 161.488281 L 24.679688 161.488281 C 23.484375 161.488281 22.339844 161.960938 21.496094 162.804688 C 20.652344 163.648438 20.179688 164.792969 20.179688 165.988281 L 20.179688 251.648438 C 20.179688 252.84375 20.652344 253.988281 21.496094 254.832031 C 22.339844 255.675781 23.484375 256.148438 24.679688 256.148438 L 39.535156 256.148438 C 40.730469 256.148438 41.875 256.625 42.71875 257.46875 C 43.5625 258.3125 44.035156 259.457031 44.035156 260.648438 L 44.035156 280.125 C 44.035156 281.035156 44.53125 281.875 45.324219 282.320312 C 46.121094 282.765625 47.09375 282.746094 47.871094 282.269531 L 88.539062 257.296875 C 89.757812 256.546875 91.164062 256.148438 92.597656 256.148438 C 93.808594 256.148438 94.789062 255.167969 94.789062 253.957031 L 94.789062 165.988281 C 94.789062 164.792969 94.316406 163.648438 93.472656 162.804688 C 92.628906 161.960938 91.484375 161.488281 90.289062 161.488281 Z M 90.289062 161.488281 " clip-rule="nonzero"/></clipPath><clipPath id="cb2ecc141b"><path d="M 0 90.375 L 375 90.375 L 375 256.277344 L 0 256.277344 Z M 0 90.375 " clip-rule="nonzero"/></clipPath><clipPath id="a91bf8780f"><path d="M 18 90.375 L 357 90.375 C 366.941406 90.375 375 98.433594 375 108.375 L 375 238.277344 C 375 248.21875 366.941406 256.277344 357 256.277344 L 18 256.277344 C 8.058594 256.277344 0 248.21875 0 238.277344 L 0 108.375 C 0 98.433594 8.058594 90.375 18 90.375 Z M 18 90.375 " clip-rule="nonzero"/></clipPath></defs><rect x="-37.5" width="450" fill="#ffffff" y="-37.499999" height="449.999989" fill-opacity="1"/><rect x="-37.5" width="450" fill="#f2f2f2" y="-37.499999" height="449.999989" fill-opacity="1"/><g clip-path="url(#b6794425aa)"><g clip-path="url(#dbc22fbd33)"><path fill="#f2b705" d="M 20.179688 161.488281 L 94.789062 161.488281 L 94.789062 284.625 L 20.179688 284.625 Z M 20.179688 161.488281 " fill-opacity="1" fill-rule="nonzero"/></g></g><g clip-path="url(#cb2ecc141b)"><g clip-path="url(#a91bf8780f)"><path fill="#f2b705" d="M 0 90.375 L 375 90.375 L 375 256.277344 L 0 256.277344 Z M 0 90.375 " fill-opacity="1" fill-rule="nonzero"/></g></g><g fill="#f2522e" fill-opacity="1"><g transform="translate(42.95972, 201.89684)"><g><path d="M 13.296875 0 C 10.753906 0 8.804688 -0.691406 7.453125 -2.078125 C 6.097656 -3.460938 5.421875 -5.394531 5.421875 -7.875 L 5.421875 -51.90625 C 5.421875 -54.445312 6.097656 -56.394531 7.453125 -57.75 C 8.804688 -59.113281 10.726562 -59.796875 13.21875 -59.796875 C 15.695312 -59.796875 17.613281 -59.113281 18.96875 -57.75 C 20.320312 -56.394531 21 -54.445312 21 -51.90625 L 21 -12.953125 L 41.671875 -12.953125 C 43.816406 -12.953125 45.46875 -12.382812 46.625 -11.25 C 47.78125 -10.125 48.359375 -8.546875 48.359375 -6.515625 C 48.359375 -4.429688 47.78125 -2.820312 46.625 -1.6875 C 45.46875 -0.5625 43.816406 0 41.671875 0 Z M 13.296875 0 "/></g></g></g><g fill="#f2522e" fill-opacity="1"><g transform="translate(91.227142, 201.89684)"><g><path d="M 13.546875 0 C 8.128906 0 5.421875 -2.679688 5.421875 -8.046875 L 5.421875 -51.65625 C 5.421875 -57.019531 8.128906 -59.703125 13.546875 -59.703125 L 42.265625 -59.703125 C 46.328125 -59.703125 48.359375 -57.726562 48.359375 -53.78125 C 48.359375 -49.707031 46.328125 -47.671875 42.265625 -47.671875 L 20.328125 -47.671875 L 20.328125 -36.328125 L 40.390625 -36.328125 C 44.460938 -36.328125 46.5 -34.320312 46.5 -30.3125 C 46.5 -26.3125 44.460938 -24.3125 40.390625 -24.3125 L 20.328125 -24.3125 L 20.328125 -12.03125 L 42.265625 -12.03125 C 46.328125 -12.03125 48.359375 -10.023438 48.359375 -6.015625 C 48.359375 -2.003906 46.328125 0 42.265625 0 Z M 13.546875 0 "/></g></g></g><g fill="#f2522e" fill-opacity="1"><g transform="translate(141.950291, 201.89684)"><g><path d="M 8.21875 0.765625 C 5.5625 0.765625 3.613281 -0.132812 2.375 -1.9375 C 1.132812 -3.75 1.132812 -6.007812 2.375 -8.71875 L 23.453125 -54.109375 C 24.472656 -56.316406 25.71875 -57.925781 27.1875 -58.9375 C 28.65625 -59.957031 30.375 -60.46875 32.34375 -60.46875 C 34.269531 -60.46875 35.96875 -59.957031 37.4375 -58.9375 C 38.90625 -57.925781 40.144531 -56.316406 41.15625 -54.109375 L 62.25 -8.71875 C 63.539062 -5.957031 63.59375 -3.6875 62.40625 -1.90625 C 61.226562 -0.125 59.367188 0.765625 56.828125 0.765625 C 54.566406 0.765625 52.828125 0.257812 51.609375 -0.75 C 50.398438 -1.769531 49.316406 -3.410156 48.359375 -5.671875 L 45.640625 -12.109375 L 18.96875 -12.109375 L 16.265625 -5.671875 C 15.242188 -3.410156 14.195312 -1.769531 13.125 -0.75 C 12.050781 0.257812 10.414062 0.765625 8.21875 0.765625 Z M 32.1875 -43.4375 L 24.046875 -24.046875 L 40.484375 -24.046875 L 32.34375 -43.4375 Z M 32.1875 -43.4375 "/></g></g></g><g fill="#f2522e" fill-opacity="1"><g transform="translate(205.290783, 201.89684)"><g><path d="M 13.21875 0.765625 C 10.726562 0.765625 8.804688 0.0859375 7.453125 -1.265625 C 6.097656 -2.617188 5.421875 -4.566406 5.421875 -7.109375 L 5.421875 -51.828125 C 5.421875 -54.367188 6.097656 -56.316406 7.453125 -57.671875 C 8.804688 -59.023438 10.753906 -59.703125 13.296875 -59.703125 L 34.125 -59.703125 C 40.90625 -59.703125 46.144531 -58.050781 49.84375 -54.75 C 53.539062 -51.445312 55.390625 -46.859375 55.390625 -40.984375 C 55.390625 -36.523438 54.269531 -32.785156 52.03125 -29.765625 C 49.800781 -26.742188 46.570312 -24.640625 42.34375 -23.453125 C 45.507812 -22.609375 48.050781 -20.4375 49.96875 -16.9375 L 54.203125 -9.3125 C 55.109375 -7.625 55.515625 -6.015625 55.421875 -4.484375 C 55.335938 -2.960938 54.726562 -1.707031 53.59375 -0.71875 C 52.46875 0.269531 50.804688 0.765625 48.609375 0.765625 C 46.410156 0.765625 44.617188 0.328125 43.234375 -0.546875 C 41.847656 -1.421875 40.617188 -2.847656 39.546875 -4.828125 L 31.84375 -18.96875 C 31.164062 -20.207031 30.300781 -21.066406 29.25 -21.546875 C 28.207031 -22.023438 27.007812 -22.265625 25.65625 -22.265625 L 21 -22.265625 L 21 -7.109375 C 21 -4.566406 20.332031 -2.617188 19 -1.265625 C 17.675781 0.0859375 15.75 0.765625 13.21875 0.765625 Z M 21 -33.28125 L 31.328125 -33.28125 C 37.484375 -33.28125 40.5625 -35.707031 40.5625 -40.5625 C 40.5625 -45.363281 37.484375 -47.765625 31.328125 -47.765625 L 21 -47.765625 Z M 21 -33.28125 "/></g></g></g><g fill="#f2522e" fill-opacity="1"><g transform="translate(263.804505, 201.89684)"><g><path d="M 12.703125 0.765625 C 7.847656 0.765625 5.421875 -1.691406 5.421875 -6.609375 L 5.421875 -52.765625 C 5.421875 -55.242188 6.039062 -57.144531 7.28125 -58.46875 C 8.519531 -59.800781 10.15625 -60.46875 12.1875 -60.46875 C 14 -60.46875 15.398438 -60.128906 16.390625 -59.453125 C 17.378906 -58.773438 18.519531 -57.644531 19.8125 -56.0625 L 44.296875 -25.484375 L 44.296875 -53.1875 C 44.296875 -58.039062 46.691406 -60.46875 51.484375 -60.46875 C 53.859375 -60.46875 55.648438 -59.832031 56.859375 -58.5625 C 58.078125 -57.289062 58.6875 -55.5 58.6875 -53.1875 L 58.6875 -6.265625 C 58.6875 -4.117188 58.117188 -2.410156 56.984375 -1.140625 C 55.859375 0.128906 54.335938 0.765625 52.421875 0.765625 C 50.503906 0.765625 48.992188 0.425781 47.890625 -0.25 C 46.785156 -0.925781 45.613281 -2.054688 44.375 -3.640625 L 19.90625 -34.21875 L 19.90625 -6.609375 C 19.90625 -1.691406 17.503906 0.765625 12.703125 0.765625 Z M 12.703125 0.765625 "/></g></g></g></svg>